<?xml version="1.0" encoding="utf-8" ?>
<svg baseProfile="full" height="16" version="1.1" width="16" xmlns="http://www.w3.org/2000/svg" xmlns:ev="http://www.w3.org/2001/xml-events" xmlns:xlink="http://www.w3.org/1999/xlink"><defs /><rect fill="#bbbbbb" height="16" stroke="#bbbbbb" stroke-width=".2" width="16" x="0" y="0" /><line stroke="#dddddd" stroke-width=".2" x1="0" x2="16" y1="0" y2="0" /><line stroke="#dddddd" stroke-width=".2" x1="0" x2="16" y1="4" y2="4" /><line stroke="#dddddd" stroke-width=".2" x1="0" x2="16" y1="8" y2="8" /><line stroke="#dddddd" stroke-width=".2" x1="0" x2="16" y1="12" y2="12" /><line stroke="#dddddd" stroke-width=".2" x1="0" x2="16" y1="16" y2="16" /><polygon fill="#dddddd" points="2,0 2,4 2,8 2,12 4,16 2,16 2,0" stroke="#dddddd" stroke-width=".2" /><polyline fill="none" points="2,0 2,4 2,8 2,12 4,16" stroke="red" stroke-width=".2" /><polygon fill="#dddddd" points="12,0 16,4 12,8 12,12 12,16 14,16 14,0" stroke="#dddddd" stroke-width=".2" /><polyline fill="none" points="12,0 16,4 12,8 12,12 12,16" stroke="blue" stroke-width=".2" /><g style="font-size: 16; font-family: Helvetica;"><text text-anchor="middle" x="8" y="12">P</text></g></svg>