<?xml version="1.0" encoding="utf-8"?>
<!-- Generator: Adobe Illustrator 23.1.1, SVG Export Plug-In . SVG Version: 6.00 Build 0)  -->
<svg version="1.1" xmlns="http://www.w3.org/2000/svg" xmlns:xlink="http://www.w3.org/1999/xlink" x="0px" y="0px"
	 viewBox="0 0 109.5 23.8" style="enable-background:new 0 0 109.5 23.8;" xml:space="preserve">
<style type="text/css">
	.st0{fill:#EEEEEE;}
	.st1{fill:none;stroke:#C8C8C8;stroke-width:0.2;}
	.st2{fill:#FF0000;stroke:#FF0000;stroke-width:0.2;}
	.st3{enable-background:new    ;}
	.st4{fill:none;stroke:#CCCCCC;stroke-width:0.2;}
	.st5{fill:#FF0000;}
	.st6{font-family:'Arial-BoldMT';}
	.st7{font-size:2px;}
	.st8{fill:#0000FF;}
	.st9{fill:#0000FF;stroke:#0000FF;stroke-width:0.2;}
	.st10{fill:none;}
</style>
<g id="Layer_1" xmlns:ev="http://www.w3.org/2001/xml-events">
	<rect x="6.7" y="4" class="st0" width="12" height="16"/>
	<rect x="27.7" y="4" class="st0" width="12" height="16"/>
	<rect x="48.7" y="4" class="st0" width="12" height="16"/>
	<rect x="69.7" y="4" class="st0" width="12" height="16"/>
	<rect x="90.9" y="4" class="st0" width="12" height="16"/>
	<line class="st1" x1="0" y1="4" x2="109.5" y2="4"/>
	<line class="st1" x1="0" y1="8" x2="109.5" y2="8"/>
	<line class="st1" x1="0" y1="12" x2="109.5" y2="12"/>
	<line class="st1" x1="0" y1="16" x2="109.5" y2="16"/>
	<line class="st1" x1="0" y1="20" x2="109.5" y2="20"/>
	<polygon class="st2" points="8.7,4 8.7,8 6.7,12 8.7,16 8.7,20 6.7,20 6.7,4 	"/>
	<polygon class="st2" points="16.7,4 16.7,8 18.7,12 18.7,16 16.7,20 18.7,20 18.7,4 	"/>
	<polygon class="st2" points="25.7,4 29.7,8 29.7,12 25.7,16 29.7,20 27.7,20 27.7,4 	"/>
	<polygon class="st2" points="41.7,4 37.7,8 37.7,12 41.7,16 37.7,20 39.7,20 39.7,4 	"/>
	<g>
		<g class="st3">
			<path d="M29.8,4.8h8.2v1.1l-6.9,8.8H38V16h-8.8v-1.1L36,6.1h-6.3V4.8z"/>
		</g>
	</g>
	<polygon class="st2" points="50.7,4 48.7,8 46.7,12 48.7,16 50.7,20 48.7,20 48.7,4 	"/>
	<polygon class="st2" points="62.7,4 58.7,8 58.7,12 58.7,16 62.7,20 60.7,20 60.7,4 	"/>
	<g>
		<g class="st3">
			<path d="M52.2,11.7c0.9-0.3,1.2-0.9,1.2-2.1V8c0-1.1,0-2,0.5-2.6C54.4,4.8,55,4.8,56,4.7v0.9c-1.4,0.2-1.4,0.7-1.4,1.9v1.2
				c0,2.4-0.3,3-1.2,3.3c1,0.4,1.2,1,1.2,3.3v1.2c0,1.2,0.1,1.8,1.4,1.9v0.9c-1,0-1.6-0.1-2.1-0.7c-0.5-0.6-0.5-1.5-0.5-2.6v-1.6
				c0-1.2-0.2-1.8-1.2-2.1V11.7z"/>
		</g>
	</g>
	<polygon class="st2" points="71.7,4 67.7,8 71.7,12 71.7,16 71.7,20 69.7,20 69.7,4 	"/>
	<polygon class="st2" points="81.7,4 81.7,8 81.7,12 81.7,16 79.7,20 81.7,20 	"/>
	<g>
		<g class="st3">
			<path d="M77.2,16h-1.4V7.9h-2.6v-1c1.7-0.1,2.6-0.3,3-2.2h1.1V16z"/>
		</g>
	</g>
	<polygon class="st2" points="92.7,4 92.7,8 92.7,12 88.7,16 88.7,20 90.7,20 90.7,4 	"/>
	<polygon class="st2" points="100.7,4 100.7,8 100.7,12 104.7,16 104.7,20 102.7,20 102.7,4 	"/>
	<g>
		<g class="st3">
			<path d="M94.9,15.6c-0.4-0.6-0.1-1.4,0.7-1.4c1.2,0,1.7,2-0.8,4.3l-0.6-0.5C95.3,16.8,95.3,16.1,94.9,15.6z M97.6,15.6
				c-0.4-0.6-0.1-1.4,0.7-1.4c1.2,0,1.7,2-0.8,4.3l-0.6-0.5C97.9,16.8,97.9,16.1,97.6,15.6z"/>
		</g>
	</g>
	<line class="st4" x1="81.7" y1="4" x2="81.7" y2="16"/>
	<line class="st4" x1="18.7" y1="12" x2="18.7" y2="16"/>
	<text transform="matrix(1 0 0 1 2.5856 4.7244)"><tspan x="0" y="0" class="st5 st6 st7">-1</tspan><tspan x="0" y="4" class="st5 st6 st7">-1</tspan><tspan x="0.7" y="8" class="st6 st7">0</tspan><tspan x="0" y="12" class="st5 st6 st7">-1</tspan><tspan x="0" y="16" class="st5 st6 st7">-1</tspan></text>
	<text transform="matrix(1 0 0 1 20.5842 4.7244)"><tspan x="0" y="0" class="st5 st6 st7">-1</tspan><tspan x="0" y="4" class="st5 st6 st7">-1</tspan><tspan x="0.7" y="8" class="st6 st7">0</tspan><tspan x="0.7" y="12" class="st6 st7">0</tspan><tspan x="0" y="16" class="st5 st6 st7">-1</tspan></text>
	<text transform="matrix(1 0 0 1 24.0283 4.7244)"><tspan x="0" y="0" class="st8 st6 st7">1</tspan><tspan x="-0.7" y="4" class="st5 st6 st7">-1</tspan><tspan x="-0.7" y="8" class="st5 st6 st7">-1</tspan><tspan x="0" y="12" class="st8 st6 st7">1</tspan><tspan x="-0.7" y="16" class="st5 st6 st7">-1</tspan></text>
	<text transform="matrix(1 0 0 1 42.4303 4.7244)"><tspan x="0" y="0" class="st8 st6 st7">1</tspan><tspan x="-0.7" y="4" class="st5 st6 st7">-1</tspan><tspan x="-0.7" y="8" class="st5 st6 st7">-1</tspan><tspan x="0" y="12" class="st8 st6 st7">1</tspan><tspan x="-0.7" y="16" class="st5 st6 st7">-1</tspan></text>
	<text transform="matrix(1 0 0 1 44.542 4.7244)"><tspan x="0" y="0" class="st5 st6 st7">-1</tspan><tspan x="0.7" y="4" class="st6 st7">0</tspan><tspan x="0.7" y="8" class="st8 st6 st7">1</tspan><tspan x="0.7" y="12" class="st6 st7">0</tspan><tspan x="0" y="16" class="st5 st6 st7">-1</tspan></text>
	<text transform="matrix(1 0 0 1 63.4715 4.7244)"><tspan x="0" y="0" class="st8 st6 st7">1</tspan><tspan x="-0.7" y="4" class="st5 st6 st7">-1</tspan><tspan x="-0.7" y="8" class="st5 st6 st7">-1</tspan><tspan x="-0.7" y="12" class="st5 st6 st7">-1</tspan><tspan x="0" y="16" class="st8 st6 st7">1</tspan></text>
	<text transform="matrix(1 0 0 1 65.5832 4.7244)"><tspan x="0" y="0" class="st5 st6 st7">-1</tspan><tspan x="0.7" y="4" class="st6 st7">0</tspan><tspan x="0" y="8" class="st5 st6 st7">-1</tspan><tspan x="0" y="12" class="st5 st6 st7">-1</tspan><tspan x="0" y="16" class="st5 st6 st7">-1</tspan></text>
	<text transform="matrix(1 0 0 1 84.1537 4.7244)"><tspan x="0" y="0" class="st6 st7">0</tspan><tspan x="0" y="4" class="st6 st7">0</tspan><tspan x="0" y="8" class="st6 st7">0</tspan><tspan x="0" y="12" class="st6 st7">0</tspan><tspan x="-0.7" y="16" class="st5 st6 st7">-1</tspan></text>
	<text transform="matrix(1 0 0 1 86.2655 4.7244)"><tspan x="0" y="0" class="st5 st6 st7">-1</tspan><tspan x="0" y="4" class="st5 st6 st7">-1</tspan><tspan x="0" y="8" class="st5 st6 st7">-1</tspan><tspan x="0.7" y="12" class="st8 st6 st7">1</tspan><tspan x="0.7" y="16" class="st8 st6 st7">1</tspan></text>
	<text transform="matrix(1 0 0 1 105.1571 4.7244)"><tspan x="0" y="0" class="st5 st6 st7">-1</tspan><tspan x="0" y="4" class="st5 st6 st7">-1</tspan><tspan x="0" y="8" class="st5 st6 st7">-1</tspan><tspan x="0.7" y="12" class="st8 st6 st7">1</tspan><tspan x="0.7" y="16" class="st8 st6 st7">1</tspan></text>
	<path d="M12.3,15.1c-0.9,0-1.5-0.4-1.5-1.3c0-0.8,0.7-1.1,1.7-1.3c0.6-0.1,1.2-0.2,2-0.3v0.4c0,0.8,0,1.1-0.3,1.6
		C13.9,14.7,13.2,15.1,12.3,15.1z M9.4,13.9c0,1.6,1.3,2.3,2.5,2.3c1.1,0,2-0.4,2.7-1.2c0,0.4,0.1,0.7,0.3,1.1h1v-5.4
		c0-1.6-1-2.5-3.1-2.5c-2.1,0-3,1.2-3.1,2.6H11c0.1-1.1,0.7-1.5,1.7-1.5c0.8,0,1.8,0.2,1.8,1.4v0.6c-1.1,0.1-2,0.3-2.8,0.5
		C10.2,12,9.4,12.6,9.4,13.9z"/>
</g>
<g id="Layer_2">
	<polygon class="st9" points="27.7,4 27.7,6 25.7,4 	"/>
	<polygon class="st9" points="27.7,14 27.7,18 25.7,16 	"/>
	<path class="st9" d="M39.7,14"/>
	<polygon class="st9" points="39.7,14 39.7,18 41.7,16 	"/>
	<polygon class="st10" points="39.7,4 39.7,6 41.7,4 	"/>
	<polygon class="st9" points="48.7,8 48.7,16 46.7,12 	"/>
	<polygon class="st9" points="60.7,18 60.7,20 62.7,20 	"/>
	<polygon class="st9" points="60.7,6 60.7,4 62.7,4 	"/>
	<polygon class="st9" points="69.7,6 67.7,8 69.7,10 	"/>
	<polygon class="st9" points="90.7,14 88.7,16 88.7,20 90.7,20 	"/>
	<polygon class="st9" points="102.7,14 102.7,20 104.7,20 104.7,16 	"/>
	<polygon class="st9" points="39.7,6 39.7,4 41.7,4 	"/>
</g>
</svg>
