<?xml version="1.0" encoding="utf-8"?>
<!-- Generator: Adobe Illustrator 19.0.0, SVG Export Plug-In . SVG Version: 6.00 Build 0)  -->
<svg version="1.1" id="Layer_1" xmlns="http://www.w3.org/2000/svg" xmlns:xlink="http://www.w3.org/1999/xlink" x="0px" y="0px"
	 viewBox="-365 286.5 109.5 23.8" style="enable-background:new -365 286.5 109.5 23.8;" xml:space="preserve">
<style type="text/css">
	.st0{fill:#BBBBBB;}
	.st1{fill:#DDDDDD;}
	.st2{fill:none;stroke:#000000;stroke-width:0.2;}
	.st3{font-family:'Arial-BoldMT';}
	.st4{font-size:2px;}
	.st5{fill:none;stroke:#2F2B10;stroke-width:0.2;stroke-miterlimit:10;}
	.st6{fill:none;stroke:#000000;stroke-width:0.2;stroke-miterlimit:10;}
	.st7{fill:none;stroke:#DDDDDD;stroke-width:0.2;}
</style>
<rect x="-358.3" y="290" class="st0" width="12" height="16"/>
<rect x="-337.3" y="290" class="st0" width="12" height="16"/>
<rect x="-316.3" y="290" class="st0" width="12" height="16"/>
<rect x="-295.3" y="290" class="st0" width="12" height="16"/>
<rect x="-274.1" y="290" class="st0" width="12" height="16"/>
<polygon class="st1" points="-356.3,290 -356.3,294 -358.3,298 -356.3,302 -356.3,306 -358.3,306 -358.3,290 "/>
<polygon class="st1" points="-348.3,290 -348.3,294 -346.3,298 -346.3,290 "/>
<polygon class="st1" points="-346.3,302 -348.3,306 -346.3,306 "/>
<polygon class="st1" points="-339.3,290 -335.3,294 -335.3,298 -339.3,302 -335.3,306 -337.3,306 -337.3,290 "/>
<polygon class="st1" points="-323.3,290 -327.3,294 -327.3,298 -323.3,302 -327.3,306 -325.3,306 -325.3,290 "/>
<path d="M-335.2,290.8h8.2v1.1l-6.9,8.8h6.9v1.3h-8.8v-1.1l6.8-8.8h-6.3L-335.2,290.8L-335.2,290.8z"/>
<polygon class="st1" points="-314.3,290 -316.3,294 -318.3,298 -316.3,302 -314.3,306 -316.3,306 -316.3,290 "/>
<polygon class="st1" points="-302.3,290 -306.3,294 -306.3,298 -306.3,302 -302.3,306 -304.3,306 -304.3,290 "/>
<path d="M-312.8,297.7c0.9-0.3,1.2-0.9,1.2-2.1V294c0-1.1,0-2,0.5-2.6s1.1-0.6,2.1-0.7v0.9c-1.4,0.2-1.4,0.7-1.4,1.9v1.2
	c0,2.4-0.3,3-1.2,3.3c1,0.4,1.2,1,1.2,3.3v1.2c0,1.2,0.1,1.8,1.4,1.9v0.9c-1,0-1.6-0.1-2.1-0.7s-0.5-1.5-0.5-2.6v-1.6
	c0-1.2-0.2-1.8-1.2-2.1V297.7z"/>
<polygon class="st1" points="-293.3,290 -297.3,294 -293.3,298 -293.3,302 -293.3,306 -295.3,306 -295.3,290 "/>
<polygon class="st1" points="-283.3,302 -283.3,302 -285.3,306 -283.3,306 "/>
<path d="M-287.8,302h-1.4v-8.1h-2.6v-1c1.7-0.1,2.6-0.3,3-2.2h1.1L-287.8,302L-287.8,302z"/>
<polygon class="st1" points="-272.1,290 -272.1,294 -272.1,298 -276.1,302 -276.1,306 -274.1,306 -274.1,290 "/>
<polygon class="st1" points="-264.1,290 -264.1,294 -264.1,298 -260.1,302 -260.1,306 -262.1,306 -262.1,290 "/>
<path d="M-270.1,301.6c-0.4-0.6-0.1-1.4,0.7-1.4c1.2,0,1.7,2-0.8,4.3l-0.6-0.5C-269.7,302.8-269.7,302.1-270.1,301.6z M-267.4,301.6
	c-0.4-0.6-0.1-1.4,0.7-1.4c1.2,0,1.7,2-0.8,4.3l-0.6-0.5C-267.1,302.8-267.1,302.1-267.4,301.6z"/>
<polyline class="st2" points="-283.3,290 -283.3,302 -285.3,306 "/>
<text transform="matrix(1 0 0 1 -362.4144 290.732)" class="st3 st4">-1</text>
<text transform="matrix(1 0 0 1 -362.4144 294.732)" class="st3 st4">-1</text>
<text transform="matrix(1 0 0 1 -361.7144 298.732)" class="st3 st4">0</text>
<text transform="matrix(1 0 0 1 -362.4144 302.732)" class="st3 st4">-1</text>
<text transform="matrix(1 0 0 1 -362.4144 306.732)" class="st3 st4">-1</text>
<text transform="matrix(1 0 0 1 -344.4158 290.732)" class="st3 st4">-1</text>
<text transform="matrix(1 0 0 1 -344.4158 294.732)" class="st3 st4">-1</text>
<text transform="matrix(1 0 0 1 -343.7158 298.732)" class="st3 st4">0</text>
<text transform="matrix(1 0 0 1 -343.7158 302.732)" class="st3 st4">0</text>
<text transform="matrix(1 0 0 1 -344.4158 306.732)" class="st3 st4">-1</text>
<text transform="matrix(1 0 0 1 -340.9717 290.732)" class="st3 st4">1</text>
<text transform="matrix(1 0 0 1 -341.6717 294.732)" class="st3 st4">-1</text>
<text transform="matrix(1 0 0 1 -341.6717 298.732)" class="st3 st4">-1</text>
<text transform="matrix(1 0 0 1 -340.9717 302.732)" class="st3 st4">1</text>
<text transform="matrix(1 0 0 1 -341.6717 306.732)" class="st3 st4">-1</text>
<text transform="matrix(1 0 0 1 -322.5697 290.732)" class="st3 st4">1</text>
<text transform="matrix(1 0 0 1 -323.2697 294.732)" class="st3 st4">-1</text>
<text transform="matrix(1 0 0 1 -323.2697 298.732)" class="st3 st4">-1</text>
<text transform="matrix(1 0 0 1 -322.5697 302.732)" class="st3 st4">1</text>
<text transform="matrix(1 0 0 1 -323.2697 306.732)" class="st3 st4">-1</text>
<text transform="matrix(1 0 0 1 -320.458 290.732)" class="st3 st4">-1</text>
<text transform="matrix(1 0 0 1 -319.758 294.732)" class="st3 st4">0</text>
<text transform="matrix(1 0 0 1 -319.758 298.732)" class="st3 st4">1</text>
<text transform="matrix(1 0 0 1 -319.758 302.732)" class="st3 st4">0</text>
<text transform="matrix(1 0 0 1 -320.458 306.732)" class="st3 st4">-1</text>
<text transform="matrix(1 0 0 1 -301.5285 290.732)" class="st3 st4">1</text>
<text transform="matrix(1 0 0 1 -302.2285 294.732)" class="st3 st4">-1</text>
<text transform="matrix(1 0 0 1 -302.2285 298.732)" class="st3 st4">-1</text>
<text transform="matrix(1 0 0 1 -302.2285 302.732)" class="st3 st4">-1</text>
<text transform="matrix(1 0 0 1 -301.5285 306.732)" class="st3 st4">1</text>
<text transform="matrix(1 0 0 1 -299.4168 290.732)" class="st3 st4">-1</text>
<text transform="matrix(1 0 0 1 -298.7168 294.732)" class="st3 st4">0</text>
<text transform="matrix(1 0 0 1 -299.4168 298.732)" class="st3 st4">-1</text>
<text transform="matrix(1 0 0 1 -299.4168 302.732)" class="st3 st4">-1</text>
<text transform="matrix(1 0 0 1 -299.4168 306.732)" class="st3 st4">-1</text>
<text transform="matrix(1 0 0 1 -280.8463 290.732)" class="st3 st4">0</text>
<text transform="matrix(1 0 0 1 -280.8463 294.732)" class="st3 st4">0</text>
<text transform="matrix(1 0 0 1 -280.8463 298.732)" class="st3 st4">0</text>
<text transform="matrix(1 0 0 1 -280.8463 302.732)" class="st3 st4">0</text>
<text transform="matrix(1 0 0 1 -281.5463 306.732)" class="st3 st4">-1</text>
<text transform="matrix(1 0 0 1 -278.7345 290.732)" class="st3 st4">-1</text>
<text transform="matrix(1 0 0 1 -278.7345 294.732)" class="st3 st4">-1</text>
<text transform="matrix(1 0 0 1 -278.7345 298.732)" class="st3 st4">-1</text>
<text transform="matrix(1 0 0 1 -278.0345 302.732)" class="st3 st4">1</text>
<text transform="matrix(1 0 0 1 -278.0345 306.732)" class="st3 st4">1</text>
<text transform="matrix(1 0 0 1 -259.8429 290.732)" class="st3 st4">-1</text>
<text transform="matrix(1 0 0 1 -259.8429 294.732)" class="st3 st4">-1</text>
<text transform="matrix(1 0 0 1 -259.8429 298.732)" class="st3 st4">-1</text>
<text transform="matrix(1 0 0 1 -259.1429 302.732)" class="st3 st4">1</text>
<text transform="matrix(1 0 0 1 -259.1429 306.732)" class="st3 st4">1</text>
<path d="M-352.7,301c-0.9,0-1.6-0.4-1.6-1.4c0-0.8,0.7-1.2,1.8-1.4c0.6-0.1,1.3-0.2,2.1-0.3v0.4c0,0.8,0,1.2-0.3,1.7
	C-351,300.6-351.7,301-352.7,301z M-355.7,299.8c0,1.7,1.4,2.4,2.6,2.4s2.1-0.4,2.8-1.3c0,0.4,0.1,0.7,0.3,1.2h1.1v-5.7
	c0-1.7-1.1-2.6-3.3-2.6s-3.2,1.3-3.3,2.7h1.4c0.1-1.2,0.7-1.6,1.8-1.6c0.8,0,1.9,0.2,1.9,1.5v0.6c-1.2,0.1-2.1,0.3-2.9,0.5
	C-354.9,297.8-355.7,298.4-355.7,299.8z"/>
<polyline class="st5" points="-356.3,290 -356.3,294 -358.3,298 -356.3,302 -356.3,306 "/>
<polyline class="st2" points="-348.3,290 -348.3,294 -346.3,298 -346.3,302 -348.3,306 "/>
<polyline class="st2" points="-339.3,290 -335.3,294 -335.3,298 -339.3,302 -335.3,306 "/>
<polyline class="st2" points="-323.3,290 -327.3,294 -327.3,298 -323.3,302 -327.3,306 "/>
<polyline class="st2" points="-314.3,290 -318.3,298 -314.3,306 "/>
<polyline class="st2" points="-302.3,290 -306.3,294 -306.3,302 -302.3,306 "/>
<polyline class="st6" points="-293.3,290 -297.3,294 -293.3,298 -293.3,306 "/>
<polyline class="st2" points="-272.1,290 -272.1,298 -276.1,302 -276.1,306 "/>
<polyline class="st2" points="-264.1,290 -264.1,298 -260.1,302 -260.1,306 "/>
<line class="st7" x1="-365" y1="290" x2="-255.5" y2="290"/>
<line class="st7" x1="-365" y1="294" x2="-255.5" y2="294"/>
<line class="st7" x1="-365" y1="298" x2="-255.5" y2="298"/>
<line class="st7" x1="-365" y1="302" x2="-255.5" y2="302"/>
<line class="st7" x1="-365" y1="306" x2="-255.5" y2="306"/>
</svg>
